<svg width="73" height="72" viewBox="0 0 73 72" fill="none" xmlns="http://www.w3.org/2000/svg">
<g filter="url(#filter0_dd)">
<rect x="12.5" y="2" width="48" height="48" rx="6" fill="#1E40AF"/>
<path d="M33.7279 17.6838L32.7792 18L32.7792 18L33.7279 17.6838ZM35.2257 22.1772L34.2771 22.4934L35.2257 22.1772ZM34.7243 23.3879L35.1715 24.2823L35.1715 24.2823L34.7243 23.3879ZM32.467 24.5165L32.0198 23.6221C31.5398 23.8621 31.3348 24.4383 31.5554 24.9275L32.467 24.5165ZM37.9835 30.033L37.5725 30.9446C38.0618 31.1652 38.6379 30.9602 38.8779 30.4802L37.9835 30.033ZM39.1121 27.7757L38.2177 27.3285L39.1121 27.7757ZM40.3228 27.2743L40.0066 28.2229L40.0066 28.2229L40.3228 27.2743ZM44.8162 28.7721L45.1325 27.8234L44.8162 28.7721ZM29.5 16C27.8431 16 26.5 17.3431 26.5 19H28.5C28.5 18.4477 28.9477 18 29.5 18V16ZM32.7792 16H29.5V18H32.7792V16ZM34.6766 17.3675C34.4044 16.5509 33.6401 16 32.7792 16V18L32.7792 18L34.6766 17.3675ZM36.1744 21.861L34.6766 17.3675L32.7792 18L34.2771 22.4934L36.1744 21.861ZM35.1715 24.2823C36.0617 23.8372 36.4892 22.8052 36.1744 21.861L34.2771 22.4934L34.2771 22.4934L35.1715 24.2823ZM32.9142 25.4109L35.1715 24.2823L34.2771 22.4934L32.0198 23.6221L32.9142 25.4109ZM38.3945 29.1214C36.1721 28.1194 34.3806 26.3279 33.3786 24.1055L31.5554 24.9275C32.7579 27.5946 34.9054 29.7421 37.5725 30.9446L38.3945 29.1214ZM38.2177 27.3285L37.0891 29.5858L38.8779 30.4802L40.0066 28.2229L38.2177 27.3285ZM40.639 26.3256C39.6948 26.0108 38.6628 26.4383 38.2177 27.3285L40.0066 28.2229L40.0066 28.2229L40.639 26.3256ZM45.1325 27.8234L40.639 26.3256L40.0066 28.2229L44.5 29.7208L45.1325 27.8234ZM46.5 29.7208C46.5 28.8599 45.9491 28.0956 45.1325 27.8234L44.5 29.7208H46.5ZM46.5 33V29.7208H44.5V33H46.5ZM43.5 36C45.1569 36 46.5 34.6569 46.5 33H44.5C44.5 33.5523 44.0523 34 43.5 34V36ZM42.5 36H43.5V34H42.5V36ZM26.5 20C26.5 28.8366 33.6634 36 42.5 36V34C34.768 34 28.5 27.732 28.5 20H26.5ZM26.5 19V20H28.5V19H26.5Z" fill="white"/>
</g>
<defs>
<filter id="filter0_dd" x="0.5" y="0" width="72" height="72" filterUnits="userSpaceOnUse" color-interpolation-filters="sRGB">
<feFlood flood-opacity="0" result="BackgroundImageFix"/>
<feColorMatrix in="SourceAlpha" type="matrix" values="0 0 0 0 0 0 0 0 0 0 0 0 0 0 0 0 0 0 127 0"/>
<feMorphology radius="2" operator="erode" in="SourceAlpha" result="effect1_dropShadow"/>
<feOffset dy="4"/>
<feGaussianBlur stdDeviation="3"/>
<feColorMatrix type="matrix" values="0 0 0 0 0 0 0 0 0 0 0 0 0 0 0 0 0 0 0.05 0"/>
<feBlend mode="normal" in2="BackgroundImageFix" result="effect1_dropShadow"/>
<feColorMatrix in="SourceAlpha" type="matrix" values="0 0 0 0 0 0 0 0 0 0 0 0 0 0 0 0 0 0 127 0"/>
<feMorphology radius="3" operator="erode" in="SourceAlpha" result="effect2_dropShadow"/>
<feOffset dy="10"/>
<feGaussianBlur stdDeviation="7.5"/>
<feColorMatrix type="matrix" values="0 0 0 0 0 0 0 0 0 0 0 0 0 0 0 0 0 0 0.1 0"/>
<feBlend mode="normal" in2="effect1_dropShadow" result="effect2_dropShadow"/>
<feBlend mode="normal" in="SourceGraphic" in2="effect2_dropShadow" result="shape"/>
</filter>
</defs>
</svg>
