<svg width="620" height="249" viewBox="0 0 620 249" fill="none" xmlns="http://www.w3.org/2000/svg">
<path d="M225.99 104.505L227.176 106.087C221.247 111.551 216.207 114.283 211.983 114.283C210.278 114.283 208.944 113.708 208.055 112.558C207.165 111.479 206.721 109.682 206.721 107.165C206.721 102.133 208.277 97.1717 211.39 92.2108C214.947 86.6029 219.097 83.727 223.989 83.727C225.767 83.727 227.027 84.1584 227.917 85.0211C228.88 85.812 229.325 86.9623 229.325 88.4003C229.325 89.9101 228.732 91.4199 227.694 92.9298C226.583 94.3677 224.656 95.9495 221.84 97.5312C220.431 98.322 217.467 99.6881 212.872 101.701C212.65 102.923 212.576 104.146 212.576 105.296C212.576 106.95 212.798 108.1 213.391 108.819C213.91 109.466 214.725 109.754 215.762 109.754C216.726 109.754 217.838 109.466 219.023 108.963C220.58 108.244 222.877 106.734 225.99 104.505ZM213.317 99.4724C217.171 97.7469 220.135 95.9495 222.062 94.0082C223.396 92.6422 224.063 91.2762 224.063 89.982C224.063 88.9755 223.766 88.1846 223.248 87.5375C222.729 86.9623 221.988 86.6748 221.098 86.6748C220.209 86.6748 219.394 86.9623 218.505 87.6813C217.393 88.5441 216.429 89.8382 215.688 91.5637C214.577 94.152 213.761 96.8122 213.317 99.4724Z" fill="black"/>
<path d="M252.066 105.729L252.807 107.742C247.1 112.128 242.209 114.357 238.281 114.357C236.206 114.357 234.649 113.638 233.686 112.128C232.723 110.69 232.278 108.893 232.278 106.664C232.278 102.925 233.315 99.1146 235.316 95.2322C237.317 91.3497 239.837 88.3301 242.728 86.245C244.951 84.6633 247.545 83.8006 250.361 83.8006C252.14 83.8006 253.474 84.16 254.437 84.8071C255.327 85.4542 255.771 86.245 255.771 87.1797C255.771 87.8987 255.549 88.5457 255.104 88.9771C254.585 89.4085 253.918 89.6242 253.029 89.6242C252.214 89.6242 251.102 89.2647 249.768 88.5457C248.434 87.7549 247.248 87.3235 246.359 87.3235C245.173 87.3235 243.988 87.8268 242.802 88.9052C241.616 89.9118 240.504 91.9249 239.467 94.9446C238.429 97.9642 237.91 100.984 237.91 104.004C237.91 106.232 238.355 107.886 239.244 109.108C239.837 110.043 240.801 110.546 241.986 110.546C244.803 110.546 248.138 108.964 252.066 105.729Z" fill="black"/>
<path d="M263.023 113.348H257.613L262.356 94.2237C264.653 84.7333 266.136 78.9097 266.877 76.6809C267.544 74.524 268.433 72.6546 269.397 71.2886C270.434 69.8507 271.694 68.5565 273.176 67.4062C274.658 66.3277 276.289 65.4649 278.068 64.8179C279.846 64.2427 281.329 63.9551 282.663 63.9551C283.922 63.9551 284.886 64.1708 285.479 64.6741C286.072 65.1055 286.442 65.7525 286.442 66.5434C286.442 67.1905 286.146 67.7656 285.553 68.197C285.034 68.7003 284.293 68.916 283.478 68.916C282.44 68.916 280.81 68.7003 278.66 68.4127C277.993 68.2689 277.326 68.197 276.808 68.197C276.067 68.197 275.4 68.4127 274.733 68.916C274.066 69.4193 273.473 70.3539 272.954 71.72C272.435 73.0141 271.694 75.7462 270.731 79.9162L268.137 91.1321C270.508 88.6157 272.88 86.6745 275.4 85.2366C277.252 84.23 279.031 83.7268 280.736 83.7268C281.996 83.7268 282.959 84.1581 283.848 85.0209C284.664 85.8837 285.034 87.034 285.034 88.3282C285.034 90.8445 283.7 93.0733 281.032 95.0865C278.364 97.0277 274.288 98.1061 268.804 98.2499C270.656 99.0408 272.139 99.9036 273.25 100.838C274.362 101.773 275.474 103.067 276.511 104.793C277.623 106.446 278.957 109.25 280.661 113.204C282.663 117.878 284.515 120.969 286.22 122.479C287.924 124.061 289.777 124.852 291.778 124.852C292.964 124.852 293.927 124.564 294.743 124.061C295.484 123.558 295.854 123.054 295.854 122.551C295.854 122.192 295.78 121.76 295.558 121.185C295.262 120.61 295.113 120.107 295.113 119.675C295.113 119.1 295.336 118.669 295.78 118.237C296.225 117.806 296.744 117.59 297.337 117.59C298.004 117.59 298.522 117.878 299.041 118.381C299.486 118.884 299.782 119.603 299.782 120.466C299.782 122.192 298.967 123.63 297.411 124.996C295.78 126.29 293.705 126.937 291.185 126.937C288.517 126.937 286.146 126.29 284.071 124.996C281.996 123.701 280.069 121.688 278.29 118.812C277.252 117.159 275.4 113.42 272.806 107.597C271.62 104.864 270.582 102.779 269.619 101.413C268.804 100.335 267.84 99.2565 266.506 98.2499L263.023 113.348ZM266.803 96.7401C270.064 96.7401 272.657 96.4525 274.733 95.8054C276.734 95.2303 278.142 94.3675 279.031 93.289C279.846 92.2825 280.291 91.1321 280.291 89.838C280.291 88.9752 280.069 88.2563 279.55 87.753C279.031 87.1778 278.438 86.8902 277.771 86.8902C275.474 86.8902 271.99 89.4066 267.321 94.2956L266.803 96.7401Z" fill="black"/>
<path d="M308.967 104.505L310.153 106.087C304.224 111.551 299.184 114.283 294.96 114.283C293.255 114.283 291.921 113.708 291.032 112.558C290.143 111.479 289.698 109.682 289.698 107.165C289.698 102.133 291.254 97.1717 294.367 92.2108C297.924 86.6029 302.075 83.727 306.966 83.727C308.745 83.727 310.005 84.1584 310.894 85.0211C311.857 85.812 312.302 86.9623 312.302 88.4003C312.302 89.9101 311.709 91.4199 310.672 92.9298C309.56 94.3677 307.633 95.9495 304.817 97.5312C303.409 98.322 300.444 99.6881 295.849 101.701C295.627 102.923 295.553 104.146 295.553 105.296C295.553 106.95 295.775 108.1 296.368 108.819C296.887 109.466 297.702 109.754 298.74 109.754C299.703 109.754 300.815 109.466 302.001 108.963C303.557 108.244 305.854 106.734 308.967 104.505ZM296.294 99.4724C300.148 97.7469 303.112 95.9495 305.039 94.0082C306.373 92.6422 307.04 91.2762 307.04 89.982C307.04 88.9755 306.744 88.1846 306.225 87.5375C305.706 86.9623 304.965 86.6748 304.076 86.6748C303.186 86.6748 302.371 86.9623 301.482 87.6813C300.37 88.5441 299.407 89.8382 298.665 91.5637C297.554 94.152 296.739 96.8122 296.294 99.4724Z" fill="black"/>
<path d="M321.851 113.347H316.515L319.035 103.928C320.221 99.255 321.332 94.8693 322.222 90.6993C322.444 89.6927 322.592 89.0457 322.592 88.7581C322.592 88.1829 322.296 87.8953 321.777 87.8953C321.406 87.8953 320.813 88.1829 320.072 88.6143C319.331 89.1176 317.997 90.3398 316.07 92.2091L314.959 90.9869C317.256 88.5424 319.554 86.745 321.851 85.5946C324.149 84.3724 325.927 83.7253 327.187 83.7253C327.558 83.7253 327.928 83.8691 328.151 84.0848C328.447 84.2286 328.595 84.5162 328.595 84.8037C328.595 85.0913 328.447 85.8822 328.076 87.2482L326.52 93.5033C328.966 89.7646 331.708 86.6012 334.821 83.941C336.229 82.7187 337.489 82.0717 338.452 82.0717C339.193 82.0717 339.786 82.2874 340.305 82.7187C340.75 83.222 341.046 83.7253 341.046 84.3724C341.046 84.9475 340.75 85.5227 340.305 85.9541C339.86 86.3855 338.674 86.9607 336.747 87.5358C334.969 88.111 333.561 88.83 332.449 89.6208C331.263 90.4836 330.077 91.7058 328.743 93.4314C327.409 95.085 326.446 96.5948 325.927 97.8171C325.408 99.0393 324.593 101.987 323.481 106.517L321.851 113.347Z" fill="black"/>
<path d="M374.058 211.711C375.902 211.711 377.458 212.438 378.668 213.835C379.878 215.289 380.454 217.245 380.454 219.761C380.454 223.842 379.014 227.476 376.075 230.663C373.193 233.849 370.081 235.471 366.797 235.471C364.78 235.471 363.166 234.856 361.956 233.57C360.746 232.284 360.112 230.551 360.112 228.371C360.112 224.513 361.207 220.991 363.512 217.749C366.336 213.723 369.851 211.711 374.058 211.711ZM371.695 213.779C370.081 213.779 368.525 214.897 367.027 217.078C365.529 219.314 364.837 222.333 364.837 226.246C364.837 228.594 365.241 230.495 366.163 231.837C366.854 232.843 367.776 233.346 368.871 233.346C370.485 233.346 371.926 232.396 373.193 230.495C374.865 228.035 375.671 225.016 375.671 221.382C375.671 218.643 375.268 216.686 374.519 215.512C373.77 214.338 372.848 213.779 371.695 213.779Z" fill="black"/>
<path d="M384.022 218.141L383.042 217.19C385.462 214.954 387.364 213.445 388.805 212.718C390.188 211.991 391.456 211.656 392.435 211.656C392.839 211.656 393.127 211.711 393.357 211.879C393.588 212.047 393.703 212.271 393.703 212.494C393.703 212.606 393.645 212.941 393.588 213.333L392.32 218.812C394.222 216.799 396.642 214.842 399.523 213.053C401.022 212.159 402.29 211.656 403.327 211.656C404.018 211.656 404.595 211.879 404.998 212.382C405.459 212.83 405.632 213.445 405.632 214.339C405.632 214.898 405.574 215.513 405.401 216.24C405.056 217.414 404.307 219.986 403.039 223.955C401.829 227.701 401.195 230.16 401.195 231.334C401.195 231.726 401.252 232.005 401.368 232.173C401.483 232.341 401.656 232.452 401.886 232.452C402.405 232.452 403.269 231.949 404.422 230.943C405.229 230.216 406.093 229.545 406.9 228.875L407.591 229.881C405.863 231.726 404.076 233.235 402.232 234.353C401.079 235.08 400.1 235.471 399.293 235.471C398.601 235.471 398.025 235.192 397.622 234.689C397.276 234.186 397.045 233.403 397.045 232.285C397.045 230.664 398.083 226.582 400.157 220.153C400.791 217.861 401.137 216.519 401.137 216.128C401.137 215.569 400.791 215.289 400.1 215.289C399.351 215.289 398.371 215.681 397.218 216.463C395.432 217.582 393.934 218.923 392.781 220.433C392.032 221.439 391.398 223.004 390.879 225.129L388.632 234.689H384.425C385.232 231.949 385.866 229.322 386.5 226.806L388.978 216.463C389.093 216.016 389.093 215.737 389.093 215.569C389.093 215.066 388.92 214.842 388.574 214.842C388.286 214.842 387.825 215.01 387.249 215.401C386.096 216.128 385.001 217.023 384.022 218.141Z" fill="black"/>
<path d="M431.332 229.041L432.139 230.047C429.603 232.116 427.759 233.513 426.491 234.184C424.82 235.079 423.495 235.582 422.515 235.582C422.054 235.582 421.708 235.414 421.42 235.191C421.132 234.967 421.017 234.687 421.017 234.352C421.017 234.072 421.132 233.513 421.305 232.843L422.284 229.488C420.037 231.836 418.193 233.458 416.694 234.296C415.196 235.135 413.813 235.526 412.603 235.526C411.623 235.526 410.759 235.135 410.125 234.24C409.433 233.402 409.088 232.172 409.088 230.55C409.088 227.979 410.01 224.96 411.854 221.606C413.698 218.251 415.715 215.791 417.962 214.17C420.21 212.549 422.227 211.766 424.071 211.766C424.532 211.766 425.108 211.822 425.973 211.934C426.837 208.412 427.701 205.784 428.508 204.163C429.315 202.542 430.352 201.144 431.62 199.97C432.888 198.796 434.329 197.846 436 197.231C437.613 196.56 439.169 196.224 440.61 196.224C441.359 196.224 441.935 196.448 442.396 196.839C442.858 197.231 443.088 197.678 443.088 198.293C443.088 198.852 442.858 199.299 442.454 199.635C442.051 200.026 441.474 200.194 440.783 200.194C440.264 200.194 439.4 200.082 438.132 199.914C436.864 199.746 436 199.635 435.539 199.635C434.847 199.635 434.271 199.858 433.81 200.25C433.291 200.641 432.83 201.479 432.369 202.765C432.081 203.548 431.39 206.176 430.295 210.592L426.318 227.084C425.857 229.041 425.627 230.327 425.627 230.942C425.627 231.613 425.915 232.004 426.434 232.004C426.779 232.004 427.183 231.892 427.586 231.613C428.278 231.277 429.488 230.439 431.332 229.041ZM425.339 214.953C423.84 214.617 422.803 214.45 422.169 214.45C420.901 214.45 419.691 214.953 418.481 215.903C417.271 216.854 416.118 218.698 415.023 221.438C413.928 224.177 413.352 226.581 413.352 228.65C413.352 229.544 413.583 230.327 414.101 230.886C414.62 231.501 415.196 231.78 415.888 231.78C416.694 231.78 417.559 231.445 418.596 230.774C420.037 229.768 421.189 228.538 421.996 227.14C422.515 226.19 423.206 224.009 424.071 220.431L425.339 214.953Z" fill="black"/>
<path d="M449.769 227.812L450.691 229.042C446.081 233.291 442.162 235.415 438.877 235.415C437.552 235.415 436.515 234.968 435.823 234.074C435.132 233.235 434.786 231.838 434.786 229.881C434.786 225.967 435.996 222.11 438.416 218.252C441.183 213.892 444.41 211.656 448.213 211.656C449.596 211.656 450.576 211.991 451.267 212.662C452.017 213.277 452.362 214.171 452.362 215.289C452.362 216.463 451.901 217.637 451.095 218.812C450.23 219.93 448.732 221.16 446.542 222.389C445.447 223.004 443.142 224.067 439.569 225.632C439.396 226.582 439.338 227.533 439.338 228.427C439.338 229.713 439.511 230.608 439.972 231.167C440.376 231.67 441.01 231.893 441.816 231.893C442.566 231.893 443.43 231.67 444.352 231.278C445.562 230.719 447.349 229.545 449.769 227.812ZM439.915 223.899C442.911 222.557 445.216 221.16 446.715 219.65C447.752 218.588 448.271 217.526 448.271 216.519C448.271 215.737 448.04 215.122 447.637 214.619C447.233 214.171 446.657 213.948 445.966 213.948C445.274 213.948 444.64 214.171 443.949 214.73C443.084 215.401 442.335 216.408 441.759 217.749C440.894 219.762 440.26 221.83 439.915 223.899Z" fill="black"/>
<path d="M459.787 234.687H455.638L457.597 227.363C458.519 223.73 459.383 220.319 460.075 217.077C460.248 216.294 460.363 215.791 460.363 215.567C460.363 215.12 460.133 214.896 459.729 214.896C459.441 214.896 458.98 215.12 458.404 215.456C457.827 215.847 456.79 216.797 455.292 218.251L454.427 217.3C456.214 215.4 458 214.002 459.787 213.107C461.573 212.157 462.956 211.654 463.936 211.654C464.224 211.654 464.512 211.766 464.685 211.933C464.916 212.045 465.031 212.269 465.031 212.493C465.031 212.716 464.916 213.331 464.628 214.393L463.417 219.257C465.319 216.35 467.451 213.89 469.872 211.822C470.967 210.871 471.946 210.368 472.695 210.368C473.272 210.368 473.733 210.536 474.136 210.871C474.482 211.263 474.712 211.654 474.712 212.157C474.712 212.604 474.482 213.052 474.136 213.387C473.79 213.722 472.868 214.17 471.37 214.617C469.987 215.064 468.892 215.623 468.028 216.238C467.106 216.909 466.183 217.859 465.146 219.201C464.109 220.487 463.36 221.661 462.956 222.611C462.553 223.562 461.919 225.854 461.055 229.376L459.787 234.687Z" fill="black"/>
<path d="M472.858 213.5H479.543C480.638 208.972 481.906 205.561 483.347 203.325C484.787 201.145 486.632 199.356 488.937 198.07C491.242 196.84 493.374 196.169 495.391 196.169C496.544 196.169 497.408 196.393 497.984 196.84C498.561 197.287 498.849 197.79 498.849 198.405C498.849 198.909 498.676 199.356 498.272 199.747C497.869 200.138 497.35 200.306 496.716 200.306C496.083 200.306 494.815 200.083 493.028 199.747C492.106 199.523 491.415 199.468 490.896 199.468C489.686 199.468 488.533 200.194 487.554 201.648C486.574 203.157 485.767 205.17 485.133 207.686L483.75 213.5H491.184L490.723 215.457H483.232L478.794 232.843C477.411 238.154 475.221 242.18 472.225 244.919C469.17 247.602 465.943 249 462.37 249C461.218 249 460.296 248.776 459.719 248.329C459.085 247.882 458.797 247.323 458.797 246.652C458.797 246.093 459.028 245.646 459.431 245.31C459.835 244.975 460.468 244.807 461.218 244.807C461.621 244.807 462.197 244.863 463.004 244.975C464.272 245.143 465.54 245.198 466.75 245.198C468.594 245.198 469.977 244.751 470.784 243.913C471.648 243.074 472.513 241.005 473.32 237.707L479.025 215.457H472.34L472.858 213.5Z" fill="black"/>
<path d="M509.498 211.265L511.343 210.874L509.268 217.806C508.403 220.546 507.597 223.732 506.848 227.31C506.444 229.267 506.214 230.497 506.214 231.056C506.214 231.615 506.444 231.894 506.963 231.894C507.251 231.894 507.712 231.727 508.346 231.335C509.556 230.665 510.651 229.826 511.746 228.82L512.61 229.882C510.478 231.783 509.095 232.901 508.519 233.348C507.309 234.131 506.156 234.69 505.061 235.081C504.37 235.361 503.678 235.472 502.986 235.472C502.525 235.472 502.122 235.361 501.892 235.137C501.661 234.913 501.546 234.634 501.546 234.187C501.546 233.907 501.603 233.572 501.776 233.068L502.871 229.379C501.258 231.224 499.356 232.845 497.108 234.187C495.725 235.025 494.515 235.472 493.363 235.472C492.268 235.472 491.403 235.081 490.827 234.354C490.078 233.348 489.674 232.006 489.674 230.385C489.674 228.484 490.193 226.304 491.23 223.956C492.325 221.608 493.708 219.427 495.495 217.527C497.281 215.57 499.183 214.172 501.142 213.278C502.641 212.551 504.6 212.216 507.02 212.216C507.597 212.216 508.231 212.272 508.807 212.327L509.498 211.265ZM505.983 215.458C505.003 215.235 504.139 215.123 503.447 215.123C501.776 215.123 500.278 215.57 499.01 216.52C497.8 217.415 496.59 219.036 495.552 221.328C494.458 223.676 493.881 226.024 493.881 228.372C493.881 229.602 494.112 230.497 494.573 231.056C494.976 231.559 495.552 231.839 496.244 231.839C497.512 231.839 498.953 231.168 500.393 229.826C501.892 228.484 502.986 226.527 503.678 223.956L505.983 215.458Z" fill="black"/>
<path d="M537.098 228.874L537.847 229.936C536.119 231.781 534.332 233.235 532.488 234.353C531.278 235.079 530.241 235.471 529.434 235.471C528.8 235.471 528.281 235.191 527.878 234.688C527.474 234.185 527.244 233.402 527.244 232.34C527.244 231.557 527.417 230.551 527.705 229.153C528.051 227.756 528.915 224.737 530.356 220.153C530.99 217.916 531.278 216.575 531.278 216.183C531.278 215.568 530.99 215.289 530.356 215.289C529.549 215.289 528.569 215.68 527.417 216.407C525.746 217.469 524.305 218.811 522.979 220.488C522.173 221.494 521.539 223.06 521.078 225.184L518.83 234.688H514.623C515.545 231.502 516.237 228.874 516.698 226.861L520.847 209.307C521.596 206.12 522.576 203.605 523.786 201.872C525.054 200.138 526.61 198.741 528.627 197.735C530.586 196.672 532.546 196.169 534.505 196.169C535.312 196.169 535.946 196.337 536.407 196.728C536.868 197.12 537.098 197.623 537.098 198.182C537.098 198.685 536.868 199.132 536.407 199.468C535.946 199.859 535.312 200.027 534.563 200.027C534.102 200.027 533.525 200.027 532.776 199.915C531.163 199.691 530.068 199.579 529.434 199.579C528.569 199.579 527.878 199.915 527.359 200.586C526.783 201.257 526.207 202.878 525.63 205.338L522.518 218.811C524.708 216.575 527.186 214.618 529.779 213.053C531.335 212.158 532.546 211.655 533.525 211.655C534.217 211.655 534.793 211.879 535.197 212.326C535.6 212.773 535.83 213.332 535.83 214.115C535.83 214.73 535.773 215.345 535.6 215.96C535.369 217.022 534.793 218.979 533.871 221.83C532.661 225.687 531.969 228.091 531.739 229.042C531.508 229.992 531.393 230.831 531.393 231.613C531.393 231.893 531.451 232.116 531.566 232.284C531.681 232.396 531.854 232.452 532.027 232.452C532.488 232.452 533.352 231.949 534.563 230.942C535.254 230.383 536.119 229.657 537.098 228.874Z" fill="black"/>
<path d="M545.047 234.687H540.898L542.857 227.363C543.779 223.73 544.644 220.319 545.335 217.077C545.508 216.294 545.623 215.791 545.623 215.567C545.623 215.12 545.393 214.896 544.989 214.896C544.701 214.896 544.24 215.12 543.664 215.456C543.088 215.847 542.05 216.797 540.552 218.251L539.688 217.3C541.474 215.4 543.261 214.002 545.047 213.107C546.833 212.157 548.217 211.654 549.196 211.654C549.484 211.654 549.773 211.766 549.945 211.933C550.176 212.045 550.291 212.269 550.291 212.493C550.291 212.716 550.176 213.331 549.888 214.393L548.678 219.257C550.579 216.35 552.712 213.89 555.132 211.822C556.227 210.871 557.207 210.368 557.956 210.368C558.532 210.368 558.993 210.536 559.396 210.871C559.742 211.263 559.973 211.654 559.973 212.157C559.973 212.604 559.742 213.052 559.396 213.387C559.051 213.722 558.129 214.17 556.63 214.617C555.247 215.064 554.152 215.623 553.288 216.238C552.366 216.909 551.444 217.859 550.406 219.201C549.369 220.487 548.62 221.661 548.217 222.611C547.813 223.562 547.179 225.854 546.315 229.376L545.047 234.687Z" fill="black"/>
<path d="M565.032 207.516L569.47 205.839L567.453 213.498H573.273L572.812 215.455H566.992L564.514 224.567C563.765 227.307 563.361 229.263 563.361 230.326C563.361 230.829 563.476 231.164 563.707 231.388C563.938 231.611 564.226 231.723 564.571 231.723C565.148 231.723 566.07 231.388 567.28 230.717C568.836 229.823 570.334 228.816 571.775 227.698L572.812 228.928C568.721 231.947 565.954 233.792 564.571 234.463C563.188 235.134 562.093 235.469 561.229 235.469C560.537 235.469 560.019 235.189 559.615 234.686C559.212 234.239 558.982 233.4 558.982 232.338C558.982 230.997 559.327 228.984 560.076 226.3L562.958 215.455H558.405L558.924 213.498H563.419L565.032 207.516Z" fill="black"/>
<path d="M590.321 227.812L591.243 229.042C586.633 233.291 582.715 235.415 579.43 235.415C578.104 235.415 577.067 234.968 576.375 234.074C575.684 233.235 575.338 231.838 575.338 229.881C575.338 225.967 576.548 222.11 578.969 218.252C581.735 213.892 584.962 211.656 588.765 211.656C590.149 211.656 591.128 211.991 591.82 212.662C592.569 213.277 592.915 214.171 592.915 215.289C592.915 216.463 592.454 217.637 591.647 218.812C590.782 219.93 589.284 221.16 587.094 222.389C585.999 223.004 583.694 224.067 580.121 225.632C579.948 226.582 579.891 227.533 579.891 228.427C579.891 229.713 580.064 230.608 580.525 231.167C580.928 231.67 581.562 231.893 582.369 231.893C583.118 231.893 583.982 231.67 584.904 231.278C586.115 230.719 587.901 229.545 590.321 227.812ZM580.467 223.899C583.464 222.557 585.769 221.16 587.267 219.65C588.304 218.588 588.823 217.526 588.823 216.519C588.823 215.737 588.593 215.122 588.189 214.619C587.786 214.171 587.21 213.948 586.518 213.948C585.826 213.948 585.193 214.171 584.501 214.73C583.637 215.401 582.887 216.408 582.311 217.749C581.447 219.762 580.813 221.83 580.467 223.899Z" fill="black"/>
<path d="M596.017 218.141L595.037 217.19C597.458 214.954 599.359 213.445 600.8 212.718C602.183 211.991 603.451 211.656 604.431 211.656C604.834 211.656 605.122 211.711 605.353 211.879C605.583 212.047 605.699 212.271 605.699 212.494C605.699 212.606 605.641 212.941 605.583 213.333L604.315 218.812C606.217 216.799 608.638 214.842 611.519 213.053C613.017 212.159 614.285 211.656 615.322 211.656C616.014 211.656 616.59 211.879 616.994 212.382C617.455 212.83 617.627 213.445 617.627 214.339C617.627 214.898 617.57 215.513 617.397 216.24C617.051 217.414 616.302 219.986 615.034 223.955C613.824 227.701 613.19 230.16 613.19 231.334C613.19 231.726 613.248 232.005 613.363 232.173C613.478 232.341 613.651 232.452 613.882 232.452C614.4 232.452 615.265 231.949 616.417 230.943C617.224 230.216 618.089 229.545 618.895 228.875L619.587 229.881C617.858 231.726 616.072 233.235 614.227 234.353C613.075 235.08 612.095 235.471 611.288 235.471C610.597 235.471 610.021 235.192 609.617 234.689C609.271 234.186 609.041 233.403 609.041 232.285C609.041 230.664 610.078 226.582 612.153 220.153C612.787 217.861 613.133 216.519 613.133 216.128C613.133 215.569 612.787 215.289 612.095 215.289C611.346 215.289 610.366 215.681 609.214 216.463C607.427 217.582 605.929 218.923 604.776 220.433C604.027 221.439 603.393 223.004 602.875 225.129L600.627 234.689H596.42C597.227 231.949 597.861 229.322 598.495 226.806L600.973 216.463C601.088 216.016 601.088 215.737 601.088 215.569C601.088 215.066 600.915 214.842 600.57 214.842C600.281 214.842 599.82 215.01 599.244 215.401C598.092 216.128 596.997 217.023 596.017 218.141Z" fill="black"/>
<path d="M96.3093 239.393C86.0357 238.634 84.3234 227.111 84.8941 226.504C88.3187 221.5 95.7386 218.164 95.7386 218.013C95.7386 218.013 122.564 210.431 137.404 225.746C150.531 239.393 190.485 238.786 221.876 238.483C263.542 238.028 297.787 224.684 296.646 218.164C295.504 211.796 268.679 200.727 220.735 189.355C201.329 184.806 190.485 170.552 198.475 162.971C199.046 162.364 278.382 124.912 409.085 139.316L385.114 175.859L358.288 176.769C358.859 173.737 363.995 171.462 364.566 165.094C365.137 159.18 362.854 154.783 350.868 150.84C308.061 136.587 208.178 162.971 252.127 172.827C291.509 181.925 330.321 195.116 341.736 200.575C347.443 203.456 349.156 212.554 349.156 214.222C349.156 216.193 344.019 228.02 335.457 230.901C325.755 234.086 261.259 249.249 238.999 248.642C212.744 247.884 157.381 248.642 96.3093 239.393Z" fill="#60A5FA"/>
<path d="M109.095 61.2191L157.689 61.3138C157.422 62.4889 168.199 40.4609 170.165 37.9746C185.116 20.5977 183.91 21.2451 195.546 12.9045C210.339 2.10481 251.326 1.52004 260.941 17.6006C262.371 27.4201 258.267 29.6889 251.855 28.8678C239.257 27.7371 223.278 8.81172 209.791 24.7034C192.214 52.1449 143.013 146.024 153.977 116.238C154.502 114.225 186.114 117.139 193.963 117.656L189.839 130.554L121.698 131.027L124.493 123.835C132.726 118.285 140.921 94.6796 151.156 75.3391L99.705 75.1792C92.4969 107.244 52.1693 129.78 48.1178 129.856C18.6008 138.802 2.08062 122.564 2.49962 124.936C-1.54908 115.057 1.20459 109.551 13.5645 110.677C15.4692 110.72 17.3535 111.607 19.2336 112.662C23.2198 115.284 26.504 117.384 27.6822 117.917C37.3252 123.03 37.2137 117.796 46.1045 114.624C54.9993 111.283 89.7111 55.0403 94.0921 31.5166C79.0017 25.0982 44.0794 40.8389 49.626 47.8836C51.4817 49.9507 60.7613 70.0734 45.5566 68.3771C35.0483 69.4875 26.3535 64.5647 26.355 44.8223C32.7726 25.7322 55.8532 16.9775 89.7305 14.8808L137.581 16.1398C129.261 15.444 105.536 60.6318 109.095 61.2191Z" fill="#1E40AF"/>
</svg>
